<svg 
 xmlns="http://www.w3.org/2000/svg"
 xmlns:xlink="http://www.w3.org/1999/xlink"
 width="14px" height="14px">
<path fill-rule="evenodd"  fill="rgb(67, 99, 114)"
 d="M13.809,12.754 C13.809,12.981 13.618,13.165 13.382,13.165 L0.549,13.165 C0.313,13.165 0.121,12.981 0.121,12.754 C0.121,9.765 2.217,7.263 5.61,6.464 C4.26,5.847 3.329,4.754 3.329,3.499 C3.329,1.571 4.960,0.3 6.965,0.3 C8.970,0.3 10.601,1.571 10.601,3.499 C10.601,4.754 9.904,5.847 8.869,6.464 C11.713,7.263 13.809,9.765 13.809,12.754 ZM9.746,3.499 C9.746,2.25 8.498,0.825 6.965,0.825 C5.432,0.825 4.185,2.25 4.185,3.499 C4.185,4.973 5.432,6.173 6.965,6.173 C8.498,6.173 9.746,4.973 9.746,3.499 ZM6.965,6.995 C3.807,6.995 1.212,9.359 0.992,12.343 L12.939,12.343 C12.718,9.359 10.123,6.995 6.965,6.995 Z"/>
</svg>