<svg 
 xmlns="http://www.w3.org/2000/svg"
 xmlns:xlink="http://www.w3.org/1999/xlink"
 width="18px" height="13px">
<path fill-rule="evenodd"  fill="rgb(67, 99, 114)"
 d="M17.624,12.628 C17.623,12.629 17.624,12.630 17.623,12.631 C17.622,12.632 17.621,12.631 17.620,12.632 C17.387,12.855 17.67,12.994 16.714,12.994 L1.285,12.994 C0.932,12.994 0.611,12.855 0.378,12.632 C0.378,12.631 0.377,12.632 0.376,12.631 C0.375,12.630 0.376,12.629 0.375,12.629 C0.143,12.405 0.0,12.96 0.0,11.756 L0.0,1.858 C0.0,1.176 0.576,0.620 1.285,0.620 L16.714,0.620 C17.423,0.620 17.999,1.176 17.999,1.858 L17.999,11.756 C17.999,12.96 17.856,12.404 17.624,12.628 ZM7.536,6.324 L1.463,12.169 L16.536,12.169 L10.463,6.324 L9.737,6.813 C9.516,6.962 9.258,7.36 8.999,7.36 C8.741,7.36 8.483,6.962 8.262,6.813 L7.536,6.324 ZM0.863,1.829 C0.862,1.839 0.857,1.848 0.857,1.858 L0.857,11.585 L6.823,5.844 L0.863,1.829 ZM1.788,1.445 L8.754,6.138 C8.901,6.237 9.98,6.237 9.245,6.138 L16.211,1.445 L1.788,1.445 ZM17.142,1.858 C17.142,1.848 17.137,1.839 17.136,1.829 L11.176,5.844 L17.142,11.585 L17.142,1.858 Z"/>
</svg>