<svg 
 xmlns="http://www.w3.org/2000/svg"
 xmlns:xlink="http://www.w3.org/1999/xlink"
 width="18px" height="15px">
<path fill-rule="evenodd"  fill="rgb(67, 99, 114)"
 d="M16.714,12.518 L5.765,12.518 L3.302,14.879 C3.221,14.958 3.111,14.999 2.999,14.999 C2.944,14.999 2.889,14.989 2.835,14.968 C2.675,14.904 2.571,14.755 2.571,14.588 L2.571,12.518 L1.285,12.518 C0.576,12.518 0.0,11.965 0.0,11.285 L0.0,1.423 C0.0,0.744 0.576,0.191 1.285,0.191 L16.714,0.191 C17.423,0.191 17.999,0.744 17.999,1.423 L17.999,11.285 C17.999,11.965 17.423,12.518 16.714,12.518 ZM17.142,1.423 C17.142,1.197 16.950,1.12 16.714,1.12 L1.285,1.12 C1.49,1.12 0.857,1.197 0.857,1.423 L0.857,11.285 C0.857,11.511 1.49,11.696 1.285,11.696 L2.999,11.696 C3.236,11.696 3.428,11.880 3.428,12.107 L3.428,13.596 L5.285,11.816 C5.365,11.739 5.474,11.696 5.588,11.696 L16.714,11.696 C16.950,11.696 17.142,11.511 17.142,11.285 L17.142,1.423 ZM12.342,6.970 C11.987,6.970 11.699,6.695 11.699,6.354 C11.699,6.14 11.987,5.738 12.342,5.738 C12.697,5.738 12.985,6.14 12.985,6.354 C12.985,6.695 12.697,6.970 12.342,6.970 ZM8.999,6.970 C8.644,6.970 8.356,6.695 8.356,6.354 C8.356,6.14 8.644,5.738 8.999,5.738 C9.354,5.738 9.642,6.14 9.642,6.354 C9.642,6.695 9.354,6.970 8.999,6.970 ZM5.414,6.970 C5.59,6.970 4.771,6.695 4.771,6.354 C4.771,6.14 5.59,5.738 5.414,5.738 C5.769,5.738 6.57,6.14 6.57,6.354 C6.57,6.695 5.769,6.970 5.414,6.970 Z"/>
</svg>