<svg 
 xmlns="http://www.w3.org/2000/svg"
 xmlns:xlink="http://www.w3.org/1999/xlink"
 width="31px" height="44px">
<path fill-rule="evenodd"  fill="rgb(163, 187, 200)"
 d="M30.524,43.46 C30.35,43.547 29.303,43.687 28.661,43.402 L22.996,40.892 L16.402,43.809 C16.115,43.937 15.807,44.0 15.500,44.0 C15.191,44.0 14.883,43.937 14.596,43.809 L8.13,40.892 L2.339,43.402 C1.696,43.687 0.965,43.547 0.474,43.46 C0.15,42.547 0.138,41.816 0.162,41.184 L5.156,30.669 C5.261,30.445 5.439,30.266 5.660,30.156 C6.204,29.885 6.869,30.104 7.141,30.646 C7.307,30.977 7.290,31.352 7.128,31.655 L2.784,40.800 L7.104,38.886 C7.679,38.631 8.337,38.632 8.910,38.887 L15.493,41.803 C15.493,41.803 15.500,41.803 15.503,41.803 C15.504,41.803 15.505,41.803 15.505,41.803 L22.89,38.886 C22.661,38.631 23.319,38.631 23.894,38.886 L28.214,40.800 L23.872,31.655 C23.653,31.248 23.709,30.730 24.46,30.379 C24.430,29.978 25.47,29.930 25.487,30.244 C25.637,30.351 25.761,30.496 25.843,30.668 L30.837,41.185 C31.137,41.816 31.15,42.546 30.524,43.46 ZM27.896,20.283 L18.349,36.209 C17.744,37.218 16.680,37.820 15.500,37.820 C14.320,37.820 13.254,37.218 12.649,36.209 L3.102,20.283 C3.90,20.262 3.79,20.241 3.68,20.221 C2.55,18.252 1.527,16.36 1.540,13.810 C1.562,10.167 3.4,6.726 5.600,4.120 C8.197,1.514 11.642,0.52 15.302,0.0 C19.68,0.50 22.620,1.369 25.300,4.1 C27.982,6.632 29.458,10.146 29.458,13.894 C29.458,16.122 28.945,18.251 27.930,20.221 C27.919,20.241 27.908,20.262 27.896,20.283 ZM23.752,5.564 C21.536,3.390 18.613,2.196 15.505,2.196 C15.447,2.196 15.390,2.196 15.332,2.197 C8.982,2.284 3.784,7.500 3.746,13.823 C3.735,15.714 4.162,17.518 5.15,19.188 L14.545,35.84 C14.836,35.571 15.310,35.624 15.500,35.624 C15.690,35.624 16.162,35.571 16.454,35.84 L25.983,19.188 C26.825,17.540 27.253,15.758 27.253,13.894 C27.253,10.738 26.9,7.781 23.752,5.564 ZM15.500,18.921 C12.714,18.921 10.449,16.667 10.449,13.894 C10.449,11.122 12.714,8.867 15.500,8.867 C18.284,8.867 20.550,11.122 20.550,13.894 C20.550,16.667 18.284,18.921 15.500,18.921 ZM15.500,11.63 C13.931,11.63 12.655,12.333 12.655,13.894 C12.655,15.455 13.931,16.725 15.500,16.725 C17.68,16.725 18.344,15.455 18.344,13.894 C18.344,12.333 17.68,11.63 15.500,11.63 Z"/>
</svg>