<svg 
 xmlns="http://www.w3.org/2000/svg"
 xmlns:xlink="http://www.w3.org/1999/xlink"
 width="37px" height="45px">
<path fill-rule="evenodd"  fill="rgb(163, 187, 200)"
 d="M31.940,22.244 C29.150,22.244 26.881,20.3 26.881,17.249 C26.881,14.495 29.150,12.254 31.940,12.254 C34.729,12.254 36.999,14.495 36.999,17.249 C36.999,20.3 34.729,22.244 31.940,22.244 ZM31.940,14.204 C30.239,14.204 28.856,15.570 28.856,17.249 C28.856,18.928 30.239,20.294 31.940,20.294 C33.640,20.294 35.25,18.928 35.25,17.249 C35.25,15.570 33.640,14.204 31.940,14.204 ZM31.940,10.908 C29.150,10.908 26.881,8.667 26.881,5.913 C26.881,3.158 29.150,0.917 31.940,0.917 C34.729,0.917 36.999,3.158 36.999,5.913 C36.999,8.667 34.729,10.908 31.940,10.908 ZM31.940,2.867 C30.239,2.867 28.856,4.233 28.856,5.913 C28.856,7.592 30.239,8.958 31.940,8.958 C33.640,8.958 35.25,7.592 35.25,5.913 C35.25,4.233 33.640,2.867 31.940,2.867 ZM18.499,44.916 C15.710,44.916 13.440,42.676 13.440,39.922 C13.440,37.168 15.710,34.927 18.499,34.927 C21.289,34.927 23.559,37.168 23.559,39.922 C23.559,42.677 21.289,44.916 18.499,44.916 ZM18.499,36.876 C16.799,36.876 15.414,38.243 15.414,39.922 C15.414,41.601 16.799,42.967 18.499,42.967 C20.200,42.967 21.584,41.601 21.584,39.922 C21.584,38.243 20.200,36.876 18.499,36.876 ZM18.499,33.581 C15.710,33.581 13.440,31.339 13.440,28.585 C13.440,25.831 15.710,23.590 18.499,23.590 C21.289,23.590 23.559,25.831 23.559,28.585 C23.559,31.339 21.289,33.581 18.499,33.581 ZM18.499,25.540 C16.799,25.540 15.414,26.906 15.414,28.585 C15.414,30.265 16.799,31.631 18.499,31.631 C20.200,31.631 21.584,30.265 21.584,28.585 C21.584,26.906 20.200,25.540 18.499,25.540 ZM18.499,22.244 C15.710,22.244 13.440,20.3 13.440,17.249 C13.440,14.495 15.710,12.254 18.499,12.254 C21.289,12.254 23.559,14.495 23.559,17.249 C23.559,20.3 21.289,22.244 18.499,22.244 ZM18.499,14.204 C16.799,14.204 15.414,15.570 15.414,17.249 C15.414,18.928 16.799,20.294 18.499,20.294 C20.200,20.294 21.584,18.928 21.584,17.249 C21.584,15.570 20.200,14.204 18.499,14.204 ZM18.499,10.908 C15.710,10.908 13.440,8.667 13.440,5.913 C13.440,3.158 15.710,0.917 18.499,0.917 C21.289,0.917 23.559,3.158 23.559,5.913 C23.559,8.667 21.289,10.908 18.499,10.908 ZM18.499,2.867 C16.799,2.867 15.414,4.233 15.414,5.913 C15.414,7.592 16.799,8.958 18.499,8.958 C20.200,8.958 21.584,7.592 21.584,5.913 C21.584,4.233 20.200,2.867 18.499,2.867 ZM5.58,33.581 C2.268,33.581 0.0,31.339 0.0,28.585 C0.0,25.831 2.269,23.590 5.58,23.590 C7.848,23.590 10.118,25.831 10.118,28.585 C10.118,31.339 7.848,33.581 5.58,33.581 ZM5.58,25.540 C3.357,25.540 1.974,26.906 1.974,28.585 C1.974,30.265 3.357,31.631 5.58,31.631 C6.759,31.631 8.143,30.265 8.143,28.585 C8.143,26.906 6.759,25.540 5.58,25.540 ZM5.58,22.244 C2.268,22.244 0.0,20.3 0.0,17.249 C0.0,14.495 2.269,12.254 5.58,12.254 C7.848,12.254 10.118,14.495 10.118,17.249 C10.118,20.3 7.848,22.244 5.58,22.244 ZM5.58,14.204 C3.357,14.204 1.974,15.570 1.974,17.249 C1.974,18.928 3.357,20.294 5.58,20.294 C6.759,20.294 8.143,18.928 8.143,17.249 C8.143,15.570 6.759,14.204 5.58,14.204 ZM5.58,10.908 C2.268,10.908 0.0,8.667 0.0,5.913 C0.0,3.158 2.269,0.917 5.58,0.917 C7.848,0.917 10.118,3.158 10.118,5.913 C10.118,8.667 7.848,10.908 5.58,10.908 ZM5.58,2.867 C3.357,2.867 1.974,4.233 1.974,5.913 C1.974,7.592 3.357,8.958 5.58,8.958 C6.759,8.958 8.143,7.592 8.143,5.913 C8.143,4.233 6.759,2.867 5.58,2.867 ZM31.940,23.590 C34.729,23.590 36.999,25.831 36.999,28.585 C36.999,31.339 34.729,33.581 31.940,33.581 C29.150,33.581 26.881,31.339 26.881,28.585 C26.881,25.831 29.150,23.590 31.940,23.590 ZM31.940,31.631 C33.640,31.631 35.25,30.265 35.25,28.585 C35.25,26.906 33.640,25.540 31.940,25.540 C30.239,25.540 28.856,26.906 28.856,28.585 C28.856,30.265 30.239,31.631 31.940,31.631 Z"/>
</svg>