<svg 
 xmlns="http://www.w3.org/2000/svg"
 xmlns:xlink="http://www.w3.org/1999/xlink"
 width="37px" height="35px">
<path fill-rule="evenodd"  fill="rgb(163, 187, 200)"
 d="M36.52,34.870 L0.976,34.917 L0.975,34.917 C0.724,34.917 0.483,34.819 0.305,34.646 C0.128,34.471 0.28,34.233 0.27,33.987 L0.0,13.785 C0.0,13.779 0.0,13.775 0.0,13.768 C0.5,13.478 0.147,13.193 0.409,13.15 L5.730,9.398 L5.730,5.560 C5.730,5.47 6.154,4.629 6.678,4.629 L12.745,4.629 L17.962,1.83 C18.287,0.861 18.718,0.862 19.41,1.84 L24.226,4.629 L30.320,4.629 C30.843,4.629 31.267,5.47 31.267,5.560 L31.267,9.443 L36.564,13.64 C36.753,13.193 36.879,13.379 36.936,13.582 C36.958,13.629 36.970,13.712 36.970,13.766 L36.998,33.936 C36.999,34.450 36.575,34.869 36.52,34.870 ZM33.226,33.9 L18.513,21.785 L3.748,33.50 L33.226,33.9 ZM5.730,11.662 L2.613,13.782 L5.730,15.902 L5.730,11.662 ZM1.897,15.562 L1.920,32.85 L13.362,23.356 L1.897,15.562 ZM18.500,2.984 L16.79,4.629 L20.907,4.629 L18.500,2.984 ZM29.372,6.493 L7.626,6.493 L7.626,17.189 L14.934,22.157 L17.933,19.869 C18.277,19.607 18.748,19.615 19.81,19.861 C19.86,19.864 19.89,19.867 19.94,19.869 L22.71,22.141 L29.372,17.149 L29.372,6.493 ZM31.267,11.713 L31.267,15.853 L34.295,13.783 L31.267,11.713 ZM35.78,15.517 L23.639,23.338 L35.101,32.82 L35.78,15.517 ZM11.137,15.998 C11.137,15.485 11.561,15.67 12.84,15.67 L24.914,15.67 C25.437,15.67 25.861,15.485 25.861,15.998 C25.861,16.513 25.437,16.931 24.914,16.931 L12.84,16.931 C11.561,16.931 11.137,16.513 11.137,15.998 ZM24.914,12.85 L12.84,12.85 C11.561,12.85 11.137,11.667 11.137,11.153 C11.137,10.638 11.561,10.221 12.84,10.221 L24.914,10.221 C25.437,10.221 25.861,10.638 25.861,11.153 C25.861,11.667 25.437,12.85 24.914,12.85 Z"/>
</svg>