<?xml version="1.0" encoding="UTF-8"?>
<svg xmlns="http://www.w3.org/2000/svg" xmlns:xlink="http://www.w3.org/1999/xlink" width="11px" height="13px" viewBox="0 0 11 12" version="1.1">
<g id="surface1">
<path style=" stroke:none;fill-rule:nonzero;fill:#fff;fill-opacity:1;" d="M 3.730469 0.5625 C 3.730469 0.25 3.46875 0 3.144531 0 C 2.816406 0 2.554688 0.25 2.554688 0.5625 L 2.554688 1.5 L 1.570312 1.5 C 0.703125 1.5 0 2.171875 0 3 L 0 10.5 C 0 11.328125 0.703125 12 1.570312 12 L 9.429688 12 C 10.296875 12 11 11.328125 11 10.5 L 11 3 C 11 2.171875 10.296875 1.5 9.429688 1.5 L 8.445312 1.5 L 8.445312 0.5625 C 8.445312 0.25 8.183594 0 7.855469 0 C 7.53125 0 7.269531 0.25 7.269531 0.5625 L 7.269531 1.5 L 3.730469 1.5 Z M 1.179688 4.5 L 3.144531 4.5 L 3.144531 5.8125 L 1.179688 5.8125 Z M 1.179688 6.9375 L 3.144531 6.9375 L 3.144531 8.4375 L 1.179688 8.4375 Z M 4.320312 6.9375 L 6.679688 6.9375 L 6.679688 8.4375 L 4.320312 8.4375 Z M 7.855469 6.9375 L 9.820312 6.9375 L 9.820312 8.4375 L 7.855469 8.4375 Z M 9.820312 5.8125 L 7.855469 5.8125 L 7.855469 4.5 L 9.820312 4.5 Z M 9.820312 9.5625 L 9.820312 10.5 C 9.820312 10.707031 9.644531 10.875 9.429688 10.875 L 7.855469 10.875 L 7.855469 9.5625 Z M 6.679688 9.5625 L 6.679688 10.875 L 4.320312 10.875 L 4.320312 9.5625 Z M 3.144531 9.5625 L 3.144531 10.875 L 1.570312 10.875 C 1.355469 10.875 1.179688 10.707031 1.179688 10.5 L 1.179688 9.5625 Z M 6.679688 5.8125 L 4.320312 5.8125 L 4.320312 4.5 L 6.679688 4.5 Z M 6.679688 5.8125 "/>
</g>
</svg>
