<svg 
 xmlns="http://www.w3.org/2000/svg"
 xmlns:xlink="http://www.w3.org/1999/xlink"
 width="9px" height="16px">
<path fill-rule="evenodd"  fill="rgb(161, 161, 161)"
 d="M6.189,0.124 C6.602,0.124 7.18,0.146 7.429,0.165 C7.697,0.176 7.966,0.214 8.218,0.242 L8.199,2.727 L8.2,2.727 C7.729,2.727 7.456,2.723 7.184,2.723 C6.979,2.723 6.775,2.725 6.570,2.732 C5.912,2.754 5.427,3.1 5.394,3.824 C5.372,4.416 5.358,5.724 5.357,5.793 C5.391,5.793 6.42,5.795 6.696,5.795 C7.24,5.795 7.344,5.795 7.567,5.793 L8.99,5.793 C7.966,6.747 7.843,7.663 7.710,8.585 L5.357,8.585 L5.304,15.556 L2.413,15.556 L2.467,8.574 L0.103,8.574 L0.124,5.798 L2.499,5.798 L2.500,5.590 C2.505,5.30 2.498,4.471 2.519,3.911 C2.527,3.560 2.546,3.198 2.609,2.847 C2.769,1.997 3.164,1.284 3.875,0.774 C4.499,0.330 5.208,0.143 5.959,0.126 C6.36,0.125 6.113,0.124 6.189,0.124 Z"/>
</svg>