<svg 
 xmlns="http://www.w3.org/2000/svg"
 xmlns:xlink="http://www.w3.org/1999/xlink"
 width="19px" height="12px">
<path fill-rule="evenodd"  fill="rgb(161, 161, 161)"
 d="M18.928,4.963 L18.928,5.18 L18.917,6.461 L18.916,6.521 L18.856,6.521 L16.926,6.521 L16.911,8.452 L16.911,8.507 L16.856,8.507 L15.408,8.507 L15.353,8.507 L15.353,8.452 L15.368,6.521 L13.437,6.521 L13.377,6.521 L13.377,6.461 L13.388,5.18 L13.389,4.963 L13.449,4.963 L15.380,4.963 L15.394,3.27 L15.395,2.972 L15.450,2.972 L16.898,2.972 L16.953,2.972 L16.952,3.27 L16.937,4.963 L18.868,4.963 L18.928,4.963 ZM8.139,11.540 C7.631,11.671 7.117,11.735 6.598,11.735 C6.488,11.735 6.378,11.732 6.267,11.726 C5.149,11.661 4.131,11.309 3.231,10.646 C2.69,9.790 1.337,8.649 1.30,7.239 C0.918,6.729 0.879,6.220 0.921,5.704 C1.1,4.486 1.427,3.394 2.208,2.446 C3.16,1.453 4.46,0.805 5.278,0.493 C5.590,0.411 5.903,0.361 6.222,0.345 C6.403,0.339 6.584,0.328 6.765,0.328 C7.731,0.339 8.634,0.581 9.464,1.69 C10.21,1.387 10.337,1.710 10.473,1.809 C9.904,2.369 9.357,2.917 8.798,3.466 C8.384,3.109 7.926,2.780 7.131,2.660 C6.967,2.636 6.804,2.624 6.645,2.624 C5.50,2.624 3.715,3.777 3.359,5.287 C3.274,5.627 3.250,5.973 3.280,6.318 C3.401,7.722 4.341,8.874 5.611,9.286 C5.934,9.388 6.269,9.436 6.607,9.436 C6.686,9.436 6.764,9.434 6.844,9.429 C7.442,9.390 8.2,9.231 8.510,8.896 C9.364,8.315 9.640,7.404 9.642,7.179 L6.587,7.179 C6.587,7.104 6.598,5.676 6.604,4.980 L6.610,4.887 L11.974,4.887 C12.263,6.560 12.3,8.320 10.961,9.697 C10.241,10.646 9.282,11.243 8.139,11.540 Z"/>
</svg>