<svg 
 xmlns="http://www.w3.org/2000/svg"
 xmlns:xlink="http://www.w3.org/1999/xlink"
 width="15px" height="14px">
<path fill-rule="evenodd"  fill="rgb(161, 161, 161)"
 d="M13.919,10.779 C13.496,12.337 12.479,13.258 10.904,13.510 C10.314,13.605 8.724,13.662 7.135,13.662 C5.509,13.662 3.886,13.602 3.339,13.461 C1.790,13.60 0.866,12.51 0.620,10.483 C0.437,9.331 0.417,3.977 0.750,2.814 C1.183,1.300 2.195,0.411 3.726,0.159 C4.421,0.46 5.778,0.6 7.150,0.6 C8.425,0.6 9.710,0.40 10.484,0.83 C11.422,0.132 12.281,0.434 12.978,1.103 C13.642,1.739 13.982,2.534 14.68,3.434 C14.170,4.509 14.236,9.589 13.919,10.779 ZM12.839,3.549 C12.716,2.348 11.982,1.558 10.793,1.372 C10.205,1.283 8.787,1.243 7.378,1.243 C6.18,1.243 4.664,1.279 4.68,1.344 C2.877,1.481 2.76,2.216 1.886,3.401 C1.690,4.657 1.692,9.353 1.839,10.296 C1.990,11.278 2.545,11.952 3.525,12.226 C4.55,12.375 5.642,12.428 7.199,12.428 C8.631,12.428 10.38,12.383 10.567,12.325 C11.769,12.194 12.564,11.453 12.754,10.258 C12.950,9.56 12.951,4.674 12.839,3.549 ZM10.981,4.21 C10.526,4.16 10.167,3.648 10.170,3.198 C10.174,2.747 10.539,2.381 10.989,2.381 L10.999,2.381 C11.449,2.381 11.814,2.748 11.810,3.204 C11.807,3.653 11.436,4.21 10.981,4.21 ZM7.291,10.340 C5.355,10.340 3.803,8.771 3.818,6.835 C3.833,4.899 5.414,3.330 7.350,3.335 C9.281,3.335 10.837,4.904 10.822,6.840 C10.808,8.771 9.227,10.340 7.291,10.340 ZM7.357,4.569 L7.337,4.569 C6.95,4.569 5.73,5.569 5.52,6.813 C5.32,8.64 6.28,9.89 7.278,9.100 L7.299,9.100 C8.540,9.100 9.562,8.101 9.583,6.857 C9.603,5.600 8.607,4.580 7.357,4.569 Z"/>
</svg>