<svg 
 xmlns="http://www.w3.org/2000/svg"
 xmlns:xlink="http://www.w3.org/1999/xlink"
 width="15px" height="13px">
<path fill-rule="evenodd"  fill="rgb(161, 161, 161)"
 d="M14.690,2.277 C14.584,2.436 14.479,2.584 14.357,2.727 C14.47,3.110 13.688,3.451 13.285,3.741 L13.235,3.834 C13.248,4.268 13.229,4.701 13.170,5.135 C13.53,6.45 12.789,6.917 12.399,7.745 C11.987,8.601 11.459,9.374 10.796,10.54 C9.668,11.212 8.319,11.958 6.748,12.303 C6.209,12.419 5.665,12.479 5.112,12.496 C5.23,12.498 4.935,12.499 4.847,12.499 C3.259,12.499 1.787,12.76 0.431,11.234 L0.360,11.190 C0.592,11.215 0.822,11.227 1.49,11.227 C1.824,11.227 2.570,11.82 3.298,10.789 C3.799,10.581 4.261,10.318 4.697,9.972 C3.178,9.923 2.232,8.826 1.987,7.937 C2.169,7.973 2.351,7.990 2.531,7.990 C2.769,7.990 3.6,7.960 3.243,7.904 L3.287,7.882 C2.460,7.691 1.827,7.251 1.394,6.539 C1.101,6.67 0.969,5.546 0.973,4.981 C1.388,5.200 1.815,5.321 2.276,5.332 C1.659,4.888 1.247,4.300 1.82,3.554 C0.918,2.809 1.33,2.101 1.416,1.432 C2.987,3.302 4.987,4.328 7.438,4.498 C7.422,4.378 7.407,4.279 7.391,4.174 C7.314,3.484 7.461,2.841 7.839,2.260 C8.310,1.525 8.978,1.70 9.834,0.933 C10.17,0.902 10.195,0.887 10.368,0.887 C11.135,0.887 11.813,1.182 12.396,1.750 C12.432,1.783 12.462,1.800 12.503,1.800 C12.517,1.800 12.532,1.798 12.548,1.794 C13.153,1.668 13.725,1.449 14.259,1.141 L14.298,1.119 C14.84,1.800 13.658,2.326 13.52,2.715 C13.623,2.655 14.161,2.501 14.690,2.277 Z"/>
</svg>