<?xml version="1.0" encoding="UTF-8"?>
<svg xmlns="http://www.w3.org/2000/svg" xmlns:xlink="http://www.w3.org/1999/xlink" width="11px" height="13px" viewBox="0 0 11 12" version="1.1">
<g id="surface1">
<path style=" stroke:none;fill-rule:nonzero;fill:#fff;fill-opacity:1;" d="M 7.464844 3 C 7.464844 1.964844 6.585938 1.125 5.5 1.125 C 4.414062 1.125 3.535156 1.964844 3.535156 3 C 3.535156 4.035156 4.414062 4.875 5.5 4.875 C 6.585938 4.875 7.464844 4.035156 7.464844 3 Z M 2.355469 3 C 2.355469 1.34375 3.765625 0 5.5 0 C 7.234375 0 8.644531 1.34375 8.644531 3 C 8.644531 4.65625 7.234375 6 5.5 6 C 3.765625 6 2.355469 4.65625 2.355469 3 Z M 1.210938 10.875 L 9.789062 10.875 C 9.570312 9.390625 8.234375 8.25 6.621094 8.25 L 4.378906 8.25 C 2.765625 8.25 1.429688 9.390625 1.210938 10.875 Z M 0 11.304688 C 0 8.996094 1.960938 7.125 4.378906 7.125 L 6.621094 7.125 C 9.039062 7.125 11 8.996094 11 11.304688 C 11 11.6875 10.671875 12 10.269531 12 L 0.730469 12 C 0.328125 12 0 11.6875 0 11.304688 Z M 0 11.304688 "/>
</g>
</svg>
